<?xml version="1.0" encoding="utf-8"?>
<!-- Generator: Adobe Illustrator 26.4.1, SVG Export Plug-In . SVG Version: 6.00 Build 0)  -->
<svg version="1.1" id="Слой_1" xmlns="http://www.w3.org/2000/svg" x="0px" y="0px"
	 viewBox="0 0 241.8 81.1" style="enable-background:new 0 0 241.8 81.1;" xml:space="preserve">
<style type="text/css">
	.st1{fill:#BAA363;}
</style>
<path class="st1" d="M54.4,54.9l0.7,0.2c-0.5,2.7-2.1,10.4-3.8,15.6H9.6l-0.1-0.8c7.8-1,7.8-2.6,7.8-9.6l-0.7-41.1
	c0-7.2-0.5-9.1-7-9.3l0-0.9h23.1l-0.1,0.9c-8.2,0-7.2,3.9-7.2,9.5l0.6,41.1c0,6.2,0.5,6.8,5.8,6.8C39.4,67.2,49.1,68.9,54.4,54.9z
	 M97.7,9h20.5v0.9c-7.9,0-7.7,4.9-7.9,7.2c-0.4,8.4-0.4,11.1-0.4,26.8c0,9.2-0.4,16.7-5.9,22.2c-4,4-9.7,6-16.9,6
	c-16.9,0-23.3-9.7-23.3-26.3V19.9c0-7.6-0.3-8.9-6.4-10L57.4,9H79l0,0.9c-6.2,1.2-6.6,2.5-6.6,10v24.7c0,14.7,5.6,21.6,17.5,21.6
	c13.9,0,16.7-8.9,16.7-22.2c0-16.3,0-22.4-0.3-27c-0.2-3.9-1.1-6.2-8.6-7.1V9z M117.1,10.1L117.1,10.1L117.1,10.1
	C117.1,10.1,117.1,10.1,117.1,10.1z M192.1,58.5l-0.2-37.9c0-8,0.3-9.6,7.8-10.7L199.5,9h-13.8l-22.1,47.5L141.2,9h-15.3v0.9
	c7.8,0.9,7.7,4,7.5,7.2c-1.7,32.4-1.9,41.3-2.2,44.9c-0.4,4.6-1.3,7.1-7.1,7.9l0.1,0.8h20.1l0.1-0.8c-6.7-0.9-7.4-3.4-7.4-7.9
	c0-5.9,0.1-13.2,1-39.6c5.2,12.2,18.5,43.2,20.3,48.2h2.4c2-5.2,18.8-41,23.7-51.2l-1.1,39c-0.1,8.7-0.1,10.2-6.7,11.4l0.2,0.8h22.8
	l0.2-0.8C192.7,68.8,192.1,67.4,192.1,58.5z M224.5,60.8l0.2-41c0-7,0.6-9,7.6-9.9L232.1,9h-22.7l-0.2,0.9c7,1.1,8.2,2.7,8.2,9.7
	v39.9c0,6.5-1.3,9.2-8.2,10.4l0.2,0.8h22.7l0.2-0.8C225.1,68.6,224.5,67,224.5,60.8z M101.1,38.8c-3.1-0.2-7.9-0.9-8.7-1.9
	c-1-1.2-1.8-7.3-2-10.9l-0.9,0l-0.9,0c-0.2,3.6-1,9.7-2,10.9c-0.8,0.9-5.6,1.7-8.7,1.9l0,1.5c3.1,0.3,7.8,1,8.6,1.9
	c1,1.1,1.8,6.1,2.1,10.2h1.7c0.3-4.1,1.1-9.1,2.1-10.2c0.8-0.9,5.5-1.6,8.6-1.9L101.1,38.8z"/>
</svg>
