<svg xmlns="http://www.w3.org/2000/svg">
	<symbol id="icon-phone" viewBox="0 0 24 24">
		<path d="M6.6 10.8c1.6 3.1 3.5 5 6.6 6.6l2.2-2.2c.3-.3.8-.4 1.2-.3 1.3.4 2.6.6 4 .6.7 0 1.2.5 1.2 1.2v3.5c0 .7-.5 1.2-1.2 1.2C10.3 22 2 13.7 2 3.4 2 2.7 2.5 2.2 3.2 2.2h3.5c.7 0 1.2.5 1.2 1.2 0 1.4.2 2.7.6 4 .1.4 0 .9-.3 1.2l-1.6 2.2Z" />
	</symbol>
	<symbol id="icon-telegram" viewBox="0 0 24 24">
		<path d="M21.6 3.2 2.9 10.4c-1.1.4-1.1 1.2-.2 1.5l4.8 1.5 1.8 5.5c.2.6.3.8.7.8.3 0 .5-.1.8-.4l2.6-2.5 4.9 3.6c.9.5 1.5.3 1.7-.8l3.1-14.8c.3-1.3-.5-1.8-1.5-1.1Zm-3.1 3.3L9.8 14.4l-.3 3.2-1.3-4.4 10.3-6.7Z" />
	</symbol>
	<symbol id="icon-vk" viewBox="0 0 24 24">
		<path d="M13.1 18.2c-7.4 0-11.6-5-11.8-13.4h3.7c.1 6.2 2.8 8.8 5 9.3V4.8h3.5v5.3c2.1-.2 4.2-2.6 4.9-5.3h3.5c-.5 3.3-2.8 5.7-4.4 6.7 1.6.8 4.2 2.9 5.2 6.7h-3.9c-.8-2.5-2.8-4.4-5.3-4.6v4.6h-.4Z" />
	</symbol>
</svg>
